<svg xmlns="http://www.w3.org/2000/svg" version="1.1" xmlns:xlink="http://www.w3.org/1999/xlink" viewBox="0 0 13.047476974875629 12.72817934081943"><g transform="matrix(0.8556097338019885,0,0,0.8556097338019885,1.8608769384258332,9.078389548270653)"><rect width="15.195448334516882" height="15.195448334516882" x="-2.1479713596412546" y="-10.770081575816278" fill="#262626"></rect><g transform="matrix(1,0,0,1,0,0)" clip-path="url(#SvgjsClipPath115221)"><g clip-path="url(#SvgjsClipPath115215cc97f73b-6f8e-4a32-bf50-74565ce6aa5f)"><path d=" M 5.659648394027018 -1.2144234219243337 C 7.613834929098587 -1.2144234219243337 9.198002225958033 -2.8096777362684717 9.198002225958033 -4.778022153379845 C 9.198002225958033 -6.746366570491218 7.613834929098587 -8.341660766193215 5.659648394027018 -8.341660766193215 C 3.7054618589554487 -8.341660766193215 2.1212945620960024 -6.746167163701926 2.1212945620960024 -4.778022153379845 C 2.1212945620960024 -2.809877143057764 3.705501740313307 -1.2144234219243337 5.659648394027018 -1.2144234219243337 Z M 5.659648394027018 -1.0936227889706238 C 7.680077864501728 -1.0936227889706238 9.317925469038855 -2.74319551271818 9.317925469038855 -4.778022153379845 C 9.317925469038855 -6.812848794041511 7.680077864501728 -8.462461399146925 5.659648394027018 -8.462461399146925 C 3.639218923552308 -8.462461399146925 2.0013713190151816 -6.812888675399369 2.0013713190151816 -4.778022153379845 C 2.0013713190151816 -2.743155631360321 3.6391391608365913 -1.0936227889706238 5.659648394027018 -1.0936227889706238 Z" fill="#ea253c" transform="matrix(1,0,0,1,0,0)" fill-rule="evenodd"></path></g><g clip-path="url(#SvgjsClipPath115215cc97f73b-6f8e-4a32-bf50-74565ce6aa5f)"><path d=" M 5.119894096768679 -1.0936227889706238 C 7.074080631840246 -1.0936227889706238 8.658247928699694 -2.6888771033147627 8.658247928699694 -4.657221520426136 C 8.658247928699694 -6.625565937537509 7.074080631840248 -8.220860133239505 5.119894096768679 -8.220860133239505 C 3.1657075616971087 -8.220860133239505 1.5815801461955217 -6.625366530748216 1.5815801461955217 -4.657221520426136 C 1.5815801461955217 -2.689076510104055 3.1657474430549675 -1.0936227889706238 5.119894096768679 -1.0936227889706238 Z M 5.119894096768679 -0.9728221560169148 C 7.140323567243387 -0.9728221560169148 8.778211053138373 -2.62239487976447 8.778211053138373 -4.657221520426136 C 8.778211053138373 -6.692048161087801 7.140323567243387 -8.341660766193215 5.119894096768679 -8.341660766193215 C 3.09946462629397 -8.341660766193215 1.4616170217568425 -6.6920880424456595 1.4616170217568425 -4.657221520426136 C 1.4616170217568425 -2.6223549984066112 3.0995045076518277 -0.9727423933011963 5.119894096768679 -0.9727423933011963 Z" fill="#ea253c" transform="matrix(1,0,0,1,0,0)" fill-rule="evenodd"></path></g><g clip-path="url(#SvgjsClipPath115215cc97f73b-6f8e-4a32-bf50-74565ce6aa5f)"><path d=" M 5.779611518465698 -0.6708006329537106 C 7.733798053537267 -0.6708006329537106 9.317925469038855 -2.2662942354449997 9.317925469038855 -4.23443924576708 C 9.317925469038855 -6.2025842560891595 7.733758172179408 -7.798037977222592 5.779611518465698 -7.798037977222592 C 3.8254648647519858 -7.798037977222592 2.2412576865346816 -6.202544374731302 2.2412576865346816 -4.23443924576708 C 2.2412576865346816 -2.2663341168028586 3.825424983394128 -0.6708006329537106 5.779611518465698 -0.6708006329537106 Z M 5.779611518465698 -0.5499999999999998 C 7.800001107582547 -0.5499999999999998 9.437888593477533 -2.199572723747556 9.437888593477533 -4.23443924576708 C 9.437888593477533 -6.269305767786604 7.800001107582549 -7.9188784915341595 5.779611518465698 -7.9188784915341595 C 3.7592219293488456 -7.9188784915341595 2.121294562096002 -6.269265886428745 2.121294562096002 -4.23443924576708 C 2.121294562096002 -2.199612605105415 3.759182047990987 -0.5499999999999998 5.779611518465698 -0.5499999999999998 Z" fill="#ea253c" transform="matrix(1,0,0,1,0,0)" fill-rule="evenodd"></path></g><g clip-path="url(#SvgjsClipPath115216cc97f73b-6f8e-4a32-bf50-74565ce6aa5f)"><path d=" M 7.215444518202631 -4.298999961313365 C 7.240970763269345 -4.2469106217671655 7.284222195916238 -4.18732993300058 7.336594312575009 -4.105773422914028 C 7.4274690017996825 -3.9642502108596 7.476744035796941 -3.9349087190359464 7.418936314640931 -3.885265625939785 C 7.4085498664108655 -3.8763379485285485 7.309250214641752 -3.819769060437145 7.264396378356947 -3.8011461677376888 C 7.205260053624404 -3.7765625130462173 7.192355542534759 -3.7778372543155934 7.190753138896845 -3.674197198294765 C 7.194510034821031 -3.6172378084764745 7.232626594185641 -3.555520581526002 7.236383490109828 -3.4986015884380794 C 7.241720347043945 -3.4176285866790588 7.133026211201571 -3.4088310765101193 7.130508148341992 -3.3704586711865137 C 7.1267288097898245 -3.31276765169601 7.2795271981424055 -3.3259324972702453 7.184312104666015 -3.2453320431357264 C 7.139992402927181 -3.2078034806242446 7.13787381884568 -3.1124716854823475 7.1374878056443904 -3.010133301884472 C 7.136617031678689 -2.7805227750007315 6.955702518990272 -2.8557280213683818 6.741662687400437 -2.8520384533281407 C 6.671928953734799 -2.850831039942711 6.606935103098957 -2.846652222612464 6.546362450175565 -2.839811709603552 C 6.355644997584616 -2.818307183471209 6.265466029827383 -2.7042582365923344 6.216217926983704 -2.5996755901962603 L 5.0665449348247105 -2.5996755901962603 C 5.070584607861469 -3.214154744343145 4.884122277535902 -3.4292448909225364 4.732989132179586 -3.5976184630946157 C 4.697508443012309 -3.636655511001787 4.665330375048771 -3.678571224129864 4.636786563071988 -3.722933609220453 C 4.5927081839186945 -3.8001069366028375 4.554256848647024 -3.8803607670961204 4.52173218645952 -3.9630697286277403 L 4.940924568958319 -3.9630697286277403 L 4.940924568958319 -4.837515308266808 L 4.450867344343587 -4.837515308266808 C 4.480021880675947 -4.95888438953443 4.525628450511043 -5.075699124516354 4.586420817354807 -5.184716228724982 L 5.075930441846777 -5.184716228724982 L 5.075930441846777 -5.700304186932026 C 5.260502019696528 -5.817839443152424 5.469518060431879 -5.8915883156085105 5.686980362438012 -5.915906025429408 L 5.686980362438012 -5.768098877540021 L 5.982751756612659 -5.768098877540021 L 5.982751756612659 -5.916251641900329 C 6.173711589585814 -5.89592759799984 6.367256813302495 -5.83509012206626 6.553970501061459 -5.726387009172695 C 6.956366820778538 -5.492166766501455 7.115381817082129 -4.995601179771947 7.083688337845963 -4.653413942404949 C 7.071986751616153 -4.5271068321223105 7.137465363016407 -4.45794762973301 7.21543105262584 -4.299004449838962 Z M 3.9957847111759888 -3.5869582148031727 L 4.291578547978616 -3.5869582148031727 L 4.291578547978616 -3.2911957976797206 L 3.9957847111759888 -3.2911957976797206 L 3.9957847111759888 -3.5869582148031727 Z M 4.02149049726656 -6.342055622602624 L 4.214375907720571 -6.342055622602624 L 4.214375907720571 -6.14917470067421 L 4.021486008740963 -6.14917470067421 L 4.021486008740963 -6.342055622602624 Z M 3.4556804261614196 -4.580309326016414 L 3.648570325141026 -4.580309326016414 L 3.648570325141026 -4.387432892613597 L 3.4556804261614196 -4.387432892613597 L 3.4556804261614196 -4.580309326016414 Z M 3.6935722827705124 -5.654058907712336 L 4.156505347206211 -5.654058907712336 L 4.156505347206211 -5.191143797379024 L 3.6935722827705124 -5.191143797379024 L 3.6935722827705124 -5.654076861814723 Z M 5.1916670743499 -6.4127543892714876 L 5.4874384685245445 -6.4127543892714876 L 5.4874384685245445 -6.116987483622439 L 5.1916670743499 -6.116987483622439 L 5.1916670743499 -6.4127543892714876 Z M 4.485931706302648 -5.774737406897095 L 4.485931706302648 -5.263377639801857 L 4.997269030769903 -5.263377639801857 L 4.997269030769903 -5.774737406897095 Z M 5.403835190766037 -4.252413554148349 L 5.403835190766037 -3.840887573368196 L 5.815347705969399 -3.840887573368196 L 5.815347705969399 -4.252413554148349 Z M 4.169355995988699 -4.7346338130717704 L 4.169355995988699 -4.065937758245995 L 4.838034096712088 -4.065937758245995 L 4.838034096712088 -4.734647278648559 Z M 5.339550527174424 -4.316698217739961 L 5.339550527174424 -3.7766298409301635 L 5.879636858086609 -3.7766298409301635 L 5.879636858086609 -4.316711683316751 Z M 5.178412458263737 -3.4747989372003785 L 5.178412458263737 -3.2682863630357044 L 5.384916055377219 -3.2682863630357044 L 5.384916055377219 -3.4747989372003785 Z M 5.35237873332893 -5.326154158793077 L 5.35237873332893 -4.824655682433129 L 5.853890675265669 -4.824655682433129 L 5.853890675265669 -5.326167624369869 Z M 5.975677840272736 -4.606414590885063 L 5.975677840272736 -4.3999020167203895 L 6.182181437386218 -4.3999020167203895 L 6.182181437386218 -4.606414590885063 Z M 6.412905118617864 -5.3136670805838975 L 6.412905118617864 -5.107163483470416 L 6.6194042272057505 -5.107163483470416 L 6.6194042272057505 -5.313680546160689 Z M 6.387190355476099 -4.04059554272873 L 6.387190355476099 -3.834082968564058 L 6.593743326371142 -3.834082968564058 L 6.593743326371142 -4.040591054203136 Z" fill="#ea253c" transform="matrix(1,0,0,1,0,0)" fill-rule="evenodd"></path></g></g><g><path d=" M 0.9274139404296875 0.93896484375 L 1.0306854248046875 0.93896484375 L 1.0306854248046875 0.230712890625 L 0.9274139404296875 0.230712890625 L 0.9274139404296875 0.029296875 L 1.3844451904296875 0.029296875 L 1.7118377685546875 0.83056640625 L 2.0157928466796875 0.029296875 L 2.4794158935546875 0.029296875 L 2.4794158935546875 0.230712890625 L 2.3761444091796875 0.230712890625 L 2.3761444091796875 0.93896484375 L 2.4779510498046875 0.93896484375 L 2.4779510498046875 1.1396484375 L 2.0626678466796875 1.1396484375 L 2.0626678466796875 0.93896484375 L 2.1388397216796875 0.93896484375 L 2.1388397216796875 0.30029296875 L 1.8063201904296875 1.12646484375 L 1.6005096435546875 1.12646484375 L 1.2621307373046875 0.322265625 L 1.2621307373046875 0.93896484375 L 1.3448944091796875 0.93896484375 L 1.3448944091796875 1.1396484375 L 0.9274139404296875 1.1396484375 L 0.9274139404296875 0.93896484375 M 2.6141815185546875 0.75732421875 Q 2.6141815185546875 0.674560546875 2.6442108154296875 0.60205078125 Q 2.6742401123046875 0.529541015625 2.7277069091796875 0.475341796875 Q 2.7811737060546875 0.421142578125 2.8551483154296875 0.3896484375 Q 2.9291229248046875 0.358154296875 3.0177459716796875 0.358154296875 Q 3.1063690185546875 0.358154296875 3.1807098388671875 0.3896484375 Q 3.2550506591796875 0.421142578125 3.3085174560546875 0.475341796875 Q 3.3619842529296875 0.529541015625 3.3916473388671875 0.60205078125 Q 3.4213104248046875 0.674560546875 3.4213104248046875 0.75732421875 Q 3.4213104248046875 0.840087890625 3.3923797607421875 0.9129638671875 Q 3.3634490966796875 0.98583984375 3.3103485107421875 1.0404052734375 Q 3.2572479248046875 1.094970703125 3.1829071044921875 1.12646484375 Q 3.1085662841796875 1.157958984375 3.0177459716796875 1.157958984375 Q 2.9261932373046875 1.157958984375 2.8518524169921875 1.12646484375 Q 2.7775115966796875 1.094970703125 2.7247772216796875 1.040771484375 Q 2.6720428466796875 0.986572265625 2.6431121826171875 0.9136962890625 Q 2.6141815185546875 0.8408203125 2.6141815185546875 0.75732421875 M 2.8331756591796875 0.75732421875 Q 2.8331756591796875 0.800537109375 2.8478240966796875 0.8367919921875 Q 2.8624725341796875 0.873046875 2.8877410888671875 0.8994140625 Q 2.9130096435546875 0.92578125 2.9463348388671875 0.9404296875 Q 2.9796600341796875 0.955078125 3.0177459716796875 0.955078125 Q 3.0565643310546875 0.955078125 3.0898895263671875 0.9407958984375 Q 3.1232147216796875 0.926513671875 3.1477508544921875 0.900146484375 Q 3.1722869873046875 0.873779296875 3.1862030029296875 0.8375244140625 Q 3.2001190185546875 0.80126953125 3.2001190185546875 0.75732421875 Q 3.2001190185546875 0.7119140625 3.1862030029296875 0.67529296875 Q 3.1722869873046875 0.638671875 3.1477508544921875 0.613037109375 Q 3.1232147216796875 0.58740234375 3.0898895263671875 0.5738525390625 Q 3.0565643310546875 0.560302734375 3.0177459716796875 0.56103515625 Q 2.9796600341796875 0.560302734375 2.9463348388671875 0.5738525390625 Q 2.9130096435546875 0.58740234375 2.8877410888671875 0.613037109375 Q 2.8624725341796875 0.638671875 2.8478240966796875 0.67529296875 Q 2.8331756591796875 0.7119140625 2.8331756591796875 0.75732421875 M 4.0995330810546875 0.64306640625 Q 4.0680389404296875 0.603515625 4.0292205810546875 0.5833740234375 Q 3.9904022216796875 0.563232421875 3.9376678466796875 0.566162109375 Q 3.8951873779296875 0.563232421875 3.8603973388671875 0.577880859375 Q 3.8256072998046875 0.592529296875 3.8003387451171875 0.618896484375 Q 3.7750701904296875 0.645263671875 3.7611541748046875 0.6815185546875 Q 3.7472381591796875 0.7177734375 3.7472381591796875 0.76318359375 Q 3.7472381591796875 0.803466796875 3.7618865966796875 0.83935546875 Q 3.7765350341796875 0.875244140625 3.8018035888671875 0.9012451171875 Q 3.8270721435546875 0.92724609375 3.8618621826171875 0.94189453125 Q 3.8966522216796875 0.95654296875 3.9376678466796875 0.95947265625 Q 3.9720916748046875 0.95654296875 4.0002899169921875 0.9451904296875 Q 4.0284881591796875 0.933837890625 4.0504608154296875 0.9158935546875 Q 4.0724334716796875 0.89794921875 4.0881805419921875 0.8756103515625 Q 4.1039276123046875 0.853271484375 4.1127166748046875 0.83349609375 L 4.3141326904296875 0.88916015625 Q 4.3016815185546875 0.93310546875 4.2712860107421875 0.980712890625 Q 4.2408905029296875 1.0283203125 4.1921844482421875 1.0675048828125 Q 4.1434783935546875 1.106689453125 4.0764617919921875 1.13232421875 Q 4.0094451904296875 1.157958984375 3.9237518310546875 1.157958984375 Q 3.8365936279296875 1.157958984375 3.7633514404296875 1.1260986328125 Q 3.6901092529296875 1.09423828125 3.6373748779296875 1.039306640625 Q 3.5846405029296875 0.984375 3.5549774169921875 0.910400390625 Q 3.5253143310546875 0.83642578125 3.5253143310546875 0.75146484375 Q 3.5253143310546875 0.667236328125 3.5557098388671875 0.5950927734375 Q 3.5861053466796875 0.52294921875 3.6395721435546875 0.4691162109375 Q 3.6930389404296875 0.415283203125 3.7666473388671875 0.38525390625 Q 3.8402557373046875 0.355224609375 3.9266815185546875 0.358154296875 Q 3.9882049560546875 0.355224609375 4.0460662841796875 0.3720703125 Q 4.1039276123046875 0.388916015625 4.1559295654296875 0.422607421875 L 4.3016815185546875 0.422607421875 L 4.3016815185546875 0.64306640625 L 4.0995330810546875 0.64306640625 M 4.3793182373046875 0 L 4.7213592529296875 0 L 4.7213592529296875 0.656982421875 L 4.8495330810546875 0.656982421875 L 4.9022674560546875 0.58154296875 L 4.9022674560546875 0.380859375 L 5.2948455810546875 0.380859375 L 5.2948455810546875 0.58154296875 L 5.1586151123046875 0.58154296875 L 5.0172576904296875 0.744873046875 L 5.1615447998046875 0.919189453125 L 5.2875213623046875 0.919189453125 L 5.2875213623046875 1.1396484375 L 5.0817108154296875 1.1396484375 L 4.8356170654296875 0.814453125 L 4.7213592529296875 0.814453125 L 4.7213592529296875 0.93896484375 L 4.7989959716796875 0.93896484375 L 4.7989959716796875 1.1396484375 L 4.3793182373046875 1.1396484375 L 4.3793182373046875 0.93896484375 L 4.4965057373046875 0.93896484375 L 4.4965057373046875 0.20068359375 L 4.3793182373046875 0.20068359375 L 4.3793182373046875 0 M 6.3268280029296875 0.029296875 L 6.8021697998046875 0.029296875 L 6.8021697998046875 0.230712890625 L 6.7032928466796875 0.230712890625 L 6.4066619873046875 1.1396484375 L 6.1063690185546875 1.1396484375 L 5.8185272216796875 0.230712890625 L 5.7115936279296875 0.230712890625 L 5.7115936279296875 0.029296875 L 6.1876678466796875 0.029296875 L 6.1876678466796875 0.230712890625 L 6.0690155029296875 0.230712890625 L 6.2623748779296875 0.860595703125 L 6.4550018310546875 0.230712890625 L 6.3268280029296875 0.230712890625 L 6.3268280029296875 0.029296875 M 7.0138397216796875 0.807861328125 L 7.0160369873046875 0.83056640625 Q 7.0240936279296875 0.863525390625 7.0435028076171875 0.888427734375 Q 7.0629119873046875 0.913330078125 7.0892791748046875 0.93017578125 Q 7.1156463623046875 0.947021484375 7.1478729248046875 0.9554443359375 Q 7.1800994873046875 0.9638671875 7.2130584716796875 0.9638671875 Q 7.2460174560546875 0.9638671875 7.2756805419921875 0.9598388671875 Q 7.3053436279296875 0.955810546875 7.3331756591796875 0.9488525390625 Q 7.3610076904296875 0.94189453125 7.3873748779296875 0.9327392578125 Q 7.4137420654296875 0.923583984375 7.4408416748046875 0.913330078125 L 7.5214080810546875 1.0634765625 Q 7.4796600341796875 1.089111328125 7.4448699951171875 1.1070556640625 Q 7.4100799560546875 1.125 7.3749237060546875 1.13671875 Q 7.3397674560546875 1.1484375 7.3002166748046875 1.1539306640625 Q 7.2606658935546875 1.159423828125 7.2079315185546875 1.159423828125 Q 7.1090545654296875 1.159423828125 7.0321502685546875 1.1268310546875 Q 6.9552459716796875 1.09423828125 6.9028778076171875 1.03857421875 Q 6.8505096435546875 0.98291015625 6.8230438232421875 0.908203125 Q 6.7955780029296875 0.83349609375 6.7955780029296875 0.75 Q 6.7955780029296875 0.66650390625 6.8245086669921875 0.59326171875 Q 6.8534393310546875 0.52001953125 6.9061737060546875 0.4654541015625 Q 6.9589080810546875 0.410888671875 7.0321502685546875 0.37939453125 Q 7.1053924560546875 0.347900390625 7.1947479248046875 0.347900390625 Q 7.2841033935546875 0.347900390625 7.3533172607421875 0.3775634765625 Q 7.4225311279296875 0.4072265625 7.4701385498046875 0.4595947265625 Q 7.5177459716796875 0.511962890625 7.5433807373046875 0.5826416015625 Q 7.5690155029296875 0.6533203125 7.5712127685546875 0.734619140625 Q 7.5734100341796875 0.7529296875 7.5737762451171875 0.7708740234375 Q 7.5741424560546875 0.788818359375 7.5726776123046875 0.807861328125 L 7.0138397216796875 0.807861328125 M 7.1888885498046875 0.531005859375 Q 7.1478729248046875 0.531005859375 7.1189422607421875 0.5408935546875 Q 7.0900115966796875 0.55078125 7.0702362060546875 0.5679931640625 Q 7.0504608154296875 0.585205078125 7.0387420654296875 0.607177734375 Q 7.0270233154296875 0.629150390625 7.0204315185546875 0.6533203125 L 7.3375701904296875 0.6533203125 Q 7.3324432373046875 0.62841796875 7.3229217529296875 0.6064453125 Q 7.3134002685546875 0.58447265625 7.2965545654296875 0.567626953125 Q 7.2797088623046875 0.55078125 7.2537078857421875 0.5408935546875 Q 7.2277069091796875 0.531005859375 7.1888885498046875 0.531005859375 M 8.314620971679688 0.656982421875 L 8.108810424804688 0.656982421875 L 8.108810424804688 0.57861328125 Q 8.078781127929688 0.57861328125 8.053878784179688 0.5826416015625 Q 8.028976440429688 0.586669921875 8.010299682617188 0.59619140625 Q 7.9916229248046875 0.605712890625 7.9788055419921875 0.62255859375 Q 7.9659881591796875 0.639404296875 7.9608612060546875 0.664306640625 L 7.9608612060546875 0.93896484375 L 8.115402221679688 0.93896484375 L 8.115402221679688 1.1396484375 L 7.6202850341796875 1.1396484375 L 7.6202850341796875 0.93896484375 L 7.7338104248046875 0.93896484375 L 7.7338104248046875 0.58154296875 L 7.6217498779296875 0.58154296875 L 7.6217498779296875 0.380859375 L 7.9593963623046875 0.380859375 L 7.9593963623046875 0.434326171875 Q 7.9916229248046875 0.40869140625 8.031906127929688 0.394775390625 Q 8.072189331054688 0.380859375 8.119796752929688 0.380859375 Q 8.168136596679688 0.380859375 8.219406127929688 0.381591796875 Q 8.270675659179688 0.38232421875 8.314620971679688 0.38232421875 L 8.314620971679688 0.656982421875 M 8.911178588867188 0.579345703125 Q 8.899826049804688 0.563232421875 8.877853393554688 0.5511474609375 Q 8.855880737304688 0.5390625 8.824020385742188 0.53173828125 Q 8.792160034179688 0.5244140625 8.751876831054688 0.5244140625 Q 8.736495971679688 0.5244140625 8.718917846679688 0.5269775390625 Q 8.701339721679688 0.529541015625 8.686325073242188 0.5361328125 Q 8.671310424804688 0.542724609375 8.661422729492188 0.5540771484375 Q 8.651535034179688 0.5654296875 8.651535034179688 0.5830078125 Q 8.651535034179688 0.591796875 8.654098510742188 0.599853515625 Q 8.656661987304688 0.60791015625 8.663986206054688 0.615234375 Q 8.671310424804688 0.62255859375 8.684127807617188 0.6287841796875 Q 8.696945190429688 0.635009765625 8.717453002929688 0.638671875 L 8.855148315429688 0.665771484375 Q 8.929855346679688 0.680419921875 8.980392456054688 0.702392578125 Q 9.030929565429688 0.724365234375 9.061691284179688 0.753662109375 Q 9.092453002929688 0.782958984375 9.106002807617188 0.81884765625 Q 9.119552612304688 0.854736328125 9.119552612304688 0.896484375 Q 9.119552612304688 0.961669921875 9.089157104492188 1.0107421875 Q 9.058761596679688 1.059814453125 9.009323120117188 1.0924072265625 Q 8.959884643554688 1.125 8.897994995117188 1.1414794921875 Q 8.836105346679688 1.157958984375 8.773117065429688 1.157958984375 Q 8.732101440429688 1.157958984375 8.698776245117188 1.15283203125 Q 8.665451049804688 1.147705078125 8.638717651367188 1.138916015625 Q 8.611984252929688 1.130126953125 8.591110229492188 1.1180419921875 Q 8.570236206054688 1.10595703125 8.552658081054688 1.09130859375 L 8.420089721679688 1.09130859375 L 8.420089721679688 0.8876953125 L 8.627365112304688 0.8876953125 L 8.627365112304688 0.89208984375 Q 8.628097534179688 0.913330078125 8.640548706054688 0.9290771484375 Q 8.652999877929688 0.94482421875 8.673141479492188 0.955810546875 Q 8.693283081054688 0.966796875 8.718917846679688 0.9722900390625 Q 8.744552612304688 0.977783203125 8.773117065429688 0.977783203125 Q 8.839035034179688 0.977783203125 8.869064331054688 0.9605712890625 Q 8.899093627929688 0.943359375 8.899093627929688 0.916259765625 Q 8.899093627929688 0.89501953125 8.884445190429688 0.8800048828125 Q 8.869796752929688 0.864990234375 8.832443237304688 0.856201171875 L 8.691818237304688 0.826171875 Q 8.559249877929688 0.800537109375 8.491867065429688 0.7408447265625 Q 8.424484252929688 0.68115234375 8.424484252929688 0.58740234375 Q 8.424484252929688 0.532470703125 8.450119018554688 0.4874267578125 Q 8.475753784179688 0.4423828125 8.519699096679688 0.4105224609375 Q 8.563644409179688 0.378662109375 8.622604370117188 0.361083984375 Q 8.681564331054688 0.343505859375 8.748947143554688 0.343505859375 Q 8.795089721679688 0.343505859375 8.830978393554688 0.3489990234375 Q 8.866867065429688 0.3544921875 8.895431518554688 0.36328125 Q 8.923995971679688 0.3720703125 8.945602416992188 0.3841552734375 Q 8.967208862304688 0.396240234375 8.984054565429688 0.409423828125 L 9.111495971679688 0.409423828125 L 9.111495971679688 0.613037109375 L 8.922531127929688 0.613037109375 Q 8.922531127929688 0.595458984375 8.911178588867188 0.579345703125 M 9.441818237304688 0.807861328125 L 9.444015502929688 0.83056640625 Q 9.452072143554688 0.863525390625 9.471481323242188 0.888427734375 Q 9.490890502929688 0.913330078125 9.517257690429688 0.93017578125 Q 9.543624877929688 0.947021484375 9.575851440429688 0.9554443359375 Q 9.608078002929688 0.9638671875 9.641036987304688 0.9638671875 Q 9.673995971679688 0.9638671875 9.703659057617188 0.9598388671875 Q 9.733322143554688 0.955810546875 9.761154174804688 0.9488525390625 Q 9.788986206054688 0.94189453125 9.815353393554688 0.9327392578125 Q 9.841720581054688 0.923583984375 9.868820190429688 0.913330078125 L 9.949386596679688 1.0634765625 Q 9.907638549804688 1.089111328125 9.872848510742188 1.1070556640625 Q 9.838058471679688 1.125 9.802902221679688 1.13671875 Q 9.767745971679688 1.1484375 9.728195190429688 1.1539306640625 Q 9.688644409179688 1.159423828125 9.635910034179688 1.159423828125 Q 9.537033081054688 1.159423828125 9.460128784179688 1.1268310546875 Q 9.383224487304688 1.09423828125 9.330856323242188 1.03857421875 Q 9.278488159179688 0.98291015625 9.251022338867188 0.908203125 Q 9.223556518554688 0.83349609375 9.223556518554688 0.75 Q 9.223556518554688 0.66650390625 9.252487182617188 0.59326171875 Q 9.281417846679688 0.52001953125 9.334152221679688 0.4654541015625 Q 9.386886596679688 0.410888671875 9.460128784179688 0.37939453125 Q 9.533370971679688 0.347900390625 9.622726440429688 0.347900390625 Q 9.712081909179688 0.347900390625 9.781295776367188 0.3775634765625 Q 9.850509643554688 0.4072265625 9.898117065429688 0.4595947265625 Q 9.945724487304688 0.511962890625 9.971359252929688 0.5826416015625 Q 9.996994018554688 0.6533203125 9.999191284179688 0.734619140625 Q 10.001388549804688 0.7529296875 10.001754760742188 0.7708740234375 Q 10.002120971679688 0.788818359375 10.000656127929688 0.807861328125 L 9.441818237304688 0.807861328125 M 9.616867065429688 0.531005859375 Q 9.575851440429688 0.531005859375 9.546920776367188 0.5408935546875 Q 9.517990112304688 0.55078125 9.498214721679688 0.5679931640625 Q 9.478439331054688 0.585205078125 9.466720581054688 0.607177734375 Q 9.455001831054688 0.629150390625 9.448410034179688 0.6533203125 L 9.765548706054688 0.6533203125 Q 9.760421752929688 0.62841796875 9.750900268554688 0.6064453125 Q 9.741378784179688 0.58447265625 9.724533081054688 0.567626953125 Q 9.707687377929688 0.55078125 9.681686401367188 0.5408935546875 Q 9.655685424804688 0.531005859375 9.616867065429688 0.531005859375" fill="#ffffff" fill-rule="nonzero"></path></g><g><path d=" M 0.3173828125 1.9215185546874998 L 0.3558349609375 1.9215185546874998 L 0.3192138671875 1.8165380859374998 L 0.14129638671875 1.8165380859374998 L 0.1055908203125 1.9215185546874998 L 0.1531982421875 1.9215185546874998 L 0.1531982421875 1.9740087890624998 L 0.0030517578125 1.9740087890624998 L 0.0030517578125 1.9215185546874998 L 0.0433349609375 1.9215185546874998 L 0.1873779296875 1.5113623046874998 L 0.27740478515625 1.5113623046874998 L 0.421142578125 1.9215185546874998 L 0.467529296875 1.9215185546874998 L 0.467529296875 1.9740087890624998 L 0.3173828125 1.9740087890624998 L 0.3173828125 1.9215185546874998 M 0.15869140625 1.7658789062499998 L 0.301513671875 1.7658789062499998 L 0.2294921875 1.5589697265624998 L 0.15869140625 1.7658789062499998 M 0.709991455078125 1.9215185546874998 L 0.754547119140625 1.9215185546874998 L 0.754547119140625 1.7771704101562498 Q 0.754547119140625 1.7408544921874998 0.736083984375 1.7220861816406248 Q 0.717620849609375 1.7033178710937498 0.683135986328125 1.7033178710937498 Q 0.663299560546875 1.7033178710937498 0.643157958984375 1.7127783203124998 Q 0.623016357421875 1.7222387695312498 0.605010986328125 1.7362768554687498 L 0.605010986328125 1.9215185546874998 L 0.649566650390625 1.9215185546874998 L 0.649566650390625 1.9740087890624998 L 0.501861572265625 1.9740087890624998 L 0.501861572265625 1.9215185546874998 L 0.545806884765625 1.9215185546874998 L 0.545806884765625 1.7103369140624998 L 0.501861572265625 1.7103369140624998 L 0.501861572265625 1.6578466796874998 L 0.602569580078125 1.6578466796874998 L 0.602569580078125 1.6950781249999998 L 0.603179931640625 1.6950781249999998 Q 0.613250732421875 1.6862280273437498 0.62469482421875 1.6782934570312498 Q 0.636138916015625 1.6703588867187498 0.648651123046875 1.6645605468749998 Q 0.661163330078125 1.6587622070312498 0.67474365234375 1.6554052734374998 Q 0.688323974609375 1.6520483398437498 0.703277587890625 1.6520483398437498 Q 0.728607177734375 1.6520483398437498 0.749053955078125 1.6590673828124998 Q 0.769500732421875 1.6660864257812498 0.783843994140625 1.6804296874999998 Q 0.798187255859375 1.6947729492187498 0.80596923828125 1.7172033691406248 Q 0.813751220703125 1.7396337890624998 0.813751220703125 1.7701513671874998 L 0.813751220703125 1.9215185546874998 L 0.857696533203125 1.9215185546874998 L 0.857696533203125 1.9740087890624998 L 0.709991455078125 1.9740087890624998 L 0.709991455078125 1.9215185546874998 M 1.343841552734375 1.9215185546874998 L 1.382293701171875 1.9215185546874998 L 1.345672607421875 1.8165380859374998 L 1.167755126953125 1.8165380859374998 L 1.132049560546875 1.9215185546874998 L 1.179656982421875 1.9215185546874998 L 1.179656982421875 1.9740087890624998 L 1.029510498046875 1.9740087890624998 L 1.029510498046875 1.9215185546874998 L 1.069793701171875 1.9215185546874998 L 1.213836669921875 1.5113623046874998 L 1.303863525390625 1.5113623046874998 L 1.447601318359375 1.9215185546874998 L 1.493988037109375 1.9215185546874998 L 1.493988037109375 1.9740087890624998 L 1.343841552734375 1.9740087890624998 L 1.343841552734375 1.9215185546874998 M 1.185150146484375 1.7658789062499998 L 1.327972412109375 1.7658789062499998 L 1.255950927734375 1.5589697265624998 L 1.185150146484375 1.7658789062499998 M 1.54144287109375 1.5113623046874998 L 1.68914794921875 1.5113623046874998 L 1.68914794921875 1.5641577148437498 L 1.64520263671875 1.5641577148437498 L 1.64520263671875 1.9215185546874998 L 1.68914794921875 1.9215185546874998 L 1.68914794921875 1.9740087890624998 L 1.54144287109375 1.9740087890624998 L 1.54144287109375 1.9215185546874998 L 1.58538818359375 1.9215185546874998 L 1.58538818359375 1.5641577148437498 L 1.54144287109375 1.5641577148437498 L 1.54144287109375 1.5113623046874998 M 1.9146728515625 1.5113623046874998 L 2.10174560546875 1.5113623046874998 Q 2.13287353515625 1.5113623046874998 2.158966064453125 1.5194494628906248 Q 2.18505859375 1.5275366210937498 2.204132080078125 1.5432531738281248 Q 2.22320556640625 1.5589697265624998 2.233734130859375 1.5824682617187498 Q 2.2442626953125 1.6059667968749998 2.2442626953125 1.6364843749999998 Q 2.2442626953125 1.6618139648437498 2.23388671875 1.6842443847656248 Q 2.2235107421875 1.7066748046874998 2.20458984375 1.7234594726562498 Q 2.1856689453125 1.7402441406249998 2.159271240234375 1.7500097656249998 Q 2.13287353515625 1.7597753906249998 2.10052490234375 1.7597753906249998 L 2.0184326171875 1.7597753906249998 L 2.0184326171875 1.9215185546874998 L 2.0648193359375 1.9215185546874998 L 2.0648193359375 1.9740087890624998 L 1.9146728515625 1.9740087890624998 L 1.9146728515625 1.9215185546874998 L 1.9586181640625 1.9215185546874998 L 1.9586181640625 1.5641577148437498 L 1.9146728515625 1.5641577148437498 L 1.9146728515625 1.5113623046874998 M 2.0184326171875 1.5641577148437498 L 2.0184326171875 1.7097265624999998 L 2.10174560546875 1.7097265624999998 Q 2.119140625 1.7097265624999998 2.133636474609375 1.7049963378906248 Q 2.14813232421875 1.7002661132812498 2.158660888671875 1.6911108398437498 Q 2.169189453125 1.6819555664062498 2.175140380859375 1.6682226562499998 Q 2.18109130859375 1.6544897460937498 2.18109130859375 1.6364843749999998 Q 2.18109130859375 1.6023046874999998 2.16033935546875 1.5832312011718748 Q 2.13958740234375 1.5641577148437498 2.0941162109375 1.5641577148437498 L 2.0184326171875 1.5641577148437498 M 2.286224365234375 1.8159277343749998 Q 2.286529541015625 1.7783911132812498 2.29827880859375 1.7475683593749998 Q 2.310028076171875 1.7167456054687498 2.331085205078125 1.6946203613281248 Q 2.352142333984375 1.6724951171874998 2.381134033203125 1.6605932617187498 Q 2.410125732421875 1.6486914062499998 2.444915771484375 1.6486914062499998 Q 2.480010986328125 1.6486914062499998 2.5091552734375 1.6605932617187498 Q 2.538299560546875 1.6724951171874998 2.559051513671875 1.6943151855468748 Q 2.579803466796875 1.7161352539062498 2.591400146484375 1.7469580078124998 Q 2.602996826171875 1.7777807617187498 2.602996826171875 1.8153173828124998 Q 2.602996826171875 1.8522436523437498 2.591400146484375 1.8832189941406248 Q 2.579803466796875 1.9141943359374998 2.559051513671875 1.9364721679687498 Q 2.538299560546875 1.9587499999999998 2.5091552734375 1.9711096191406248 Q 2.480010986328125 1.9834692382812498 2.444915771484375 1.9834692382812498 Q 2.409210205078125 1.9834692382812498 2.380218505859375 1.9712622070312498 Q 2.351226806640625 1.9590551757812498 2.330474853515625 1.9369299316406248 Q 2.309722900390625 1.9148046874999998 2.298126220703125 1.8839819335937498 Q 2.286529541015625 1.8531591796874998 2.286224365234375 1.8159277343749998 M 2.346343994140625 1.8159277343749998 Q 2.346343994140625 1.8430883789062498 2.3541259765625 1.8650610351562498 Q 2.361907958984375 1.8870336914062498 2.37548828125 1.9024450683593748 Q 2.389068603515625 1.9178564453124998 2.40692138671875 1.9262487792968748 Q 2.424774169921875 1.9346411132812498 2.444915771484375 1.9346411132812498 Q 2.465972900390625 1.9346411132812498 2.484130859375 1.9264013671874998 Q 2.502288818359375 1.9181616210937498 2.515716552734375 1.9027502441406248 Q 2.529144287109375 1.8873388671874998 2.536773681640625 1.8653662109374998 Q 2.544403076171875 1.8433935546874998 2.544403076171875 1.8159277343749998 Q 2.544403076171875 1.7872412109374998 2.536773681640625 1.7649633789062498 Q 2.529144287109375 1.7426855468749998 2.515869140625 1.7277319335937498 Q 2.502593994140625 1.7127783203124998 2.484283447265625 1.7051489257812498 Q 2.465972900390625 1.6975195312499998 2.444915771484375 1.6975195312499998 Q 2.424774169921875 1.6975195312499998 2.40692138671875 1.7051489257812498 Q 2.389068603515625 1.7127783203124998 2.37548828125 1.7277319335937498 Q 2.361907958984375 1.7426855468749998 2.3541259765625 1.7649633789062498 Q 2.346343994140625 1.7872412109374998 2.346343994140625 1.8159277343749998 M 2.64068603515625 1.6578466796874998 L 2.74078369140625 1.6578466796874998 L 2.74078369140625 1.7103369140624998 L 2.72613525390625 1.7103369140624998 L 2.7813720703125 1.9120581054687498 L 2.8570556640625 1.6578466796874998 L 2.9046630859375 1.6578466796874998 L 2.97698974609375 1.9114477539062498 L 3.03466796875 1.7103369140624998 L 3.016357421875 1.7103369140624998 L 3.016357421875 1.6578466796874998 L 3.116455078125 1.6578466796874998 L 3.116455078125 1.7103369140624998 L 3.08929443359375 1.7103369140624998 L 3.00262451171875 1.9788916015624998 L 2.95013427734375 1.9788916015624998 L 2.87841796875 1.7265112304687498 L 2.8070068359375 1.9788916015624998 L 2.75390625 1.9788916015624998 L 2.6678466796875 1.7103369140624998 L 2.64068603515625 1.7103369140624998 L 2.64068603515625 1.6578466796874998 M 3.220062255859375 1.8232519531249998 Q 3.220062255859375 1.8366796874999998 3.2220458984375 1.8478186035156248 Q 3.224029541015625 1.8589575195312498 3.227691650390625 1.8690283203124998 Q 3.238983154296875 1.8995458984374998 3.26385498046875 1.9149572753906248 Q 3.288726806640625 1.9303686523437498 3.320159912109375 1.9303686523437498 Q 3.344879150390625 1.9303686523437498 3.36822509765625 1.9235021972656248 Q 3.391571044921875 1.9166357421874998 3.417205810546875 1.9019873046874998 L 3.440093994140625 1.9407446289062498 Q 3.408966064453125 1.9621069335937498 3.377532958984375 1.9724829101562498 Q 3.346099853515625 1.9828588867187498 3.312225341796875 1.9828588867187498 Q 3.280181884765625 1.9828588867187498 3.25286865234375 1.9721777343749998 Q 3.225555419921875 1.9614965820312498 3.20587158203125 1.9404394531249998 Q 3.186187744140625 1.9193823242187498 3.175048828125 1.8879492187499998 Q 3.163909912109375 1.8565161132812498 3.163909912109375 1.8147070312499998 Q 3.163909912109375 1.7808325195312498 3.173370361328125 1.7507727050781248 Q 3.182830810546875 1.7207128906249998 3.20159912109375 1.6982824707031248 Q 3.220367431640625 1.6758520507812498 3.248138427734375 1.6627294921874998 Q 3.275909423828125 1.6496069335937498 3.312835693359375 1.6496069335937498 Q 3.348541259765625 1.6496069335937498 3.37249755859375 1.6604406738281248 Q 3.396453857421875 1.6712744140624998 3.41156005859375 1.6891271972656248 Q 3.426666259765625 1.7069799804687498 3.4344482421875 1.7298681640624998 Q 3.442230224609375 1.7527563476562498 3.445281982421875 1.7765600585937498 Q 3.446807861328125 1.7881567382812498 3.447265625 1.8000585937499998 Q 3.447723388671875 1.8119604492187498 3.447723388671875 1.8232519531249998 L 3.220062255859375 1.8232519531249998 M 3.308868408203125 1.6972143554687498 Q 3.289031982421875 1.6972143554687498 3.27423095703125 1.7028601074218748 Q 3.259429931640625 1.7085058593749998 3.249053955078125 1.7190344238281248 Q 3.238677978515625 1.7295629882812498 3.232421875 1.7448217773437498 Q 3.226165771484375 1.7600805664062498 3.223114013671875 1.7790014648437498 L 3.386993408203125 1.7790014648437498 Q 3.385772705078125 1.7613012695312498 3.38134765625 1.7463476562499998 Q 3.376922607421875 1.7313940429687498 3.367767333984375 1.7204077148437498 Q 3.358612060546875 1.7094213867187498 3.344268798828125 1.7033178710937498 Q 3.329925537109375 1.6972143554687498 3.308868408203125 1.6972143554687498 M 3.7530517578125 1.7246801757812498 L 3.695068359375 1.7246801757812498 L 3.695068359375 1.7051489257812498 Q 3.68499755859375 1.7051489257812498 3.674468994140625 1.7089636230468748 Q 3.6639404296875 1.7127783203124998 3.65478515625 1.7205603027343748 Q 3.6456298828125 1.7283422851562498 3.638763427734375 1.7403967285156248 Q 3.63189697265625 1.7524511718749998 3.62884521484375 1.7689306640624998 L 3.62884521484375 1.9215185546874998 L 3.68255615234375 1.9215185546874998 L 3.68255615234375 1.9740087890624998 L 3.52569580078125 1.9740087890624998 L 3.52569580078125 1.9215185546874998 L 3.5693359375 1.9215185546874998 L 3.56964111328125 1.7103369140624998 L 3.52569580078125 1.7103369140624998 L 3.52569580078125 1.6578466796874998 L 3.626708984375 1.6578466796874998 L 3.626708984375 1.7014868164062498 Q 3.6322021484375 1.6917211914062498 3.639068603515625 1.6833288574218748 Q 3.64593505859375 1.6749365234374998 3.654327392578125 1.6686804199218748 Q 3.6627197265625 1.6624243164062498 3.672943115234375 1.6589147949218748 Q 3.68316650390625 1.6554052734374998 3.695068359375 1.6554052734374998 Q 3.7109375 1.6554052734374998 3.7249755859375 1.6554052734374998 Q 3.739013671875 1.6554052734374998 3.7530517578125 1.6560156249999998 L 3.7530517578125 1.7246801757812498 M 3.873138427734375 1.8232519531249998 Q 3.873138427734375 1.8366796874999998 3.8751220703125 1.8478186035156248 Q 3.877105712890625 1.8589575195312498 3.880767822265625 1.8690283203124998 Q 3.892059326171875 1.8995458984374998 3.91693115234375 1.9149572753906248 Q 3.941802978515625 1.9303686523437498 3.973236083984375 1.9303686523437498 Q 3.997955322265625 1.9303686523437498 4.02130126953125 1.9235021972656248 Q 4.044647216796875 1.9166357421874998 4.070281982421875 1.9019873046874998 L 4.093170166015625 1.9407446289062498 Q 4.062042236328125 1.9621069335937498 4.030609130859375 1.9724829101562498 Q 3.999176025390625 1.9828588867187498 3.965301513671875 1.9828588867187498 Q 3.933258056640625 1.9828588867187498 3.90594482421875 1.9721777343749998 Q 3.878631591796875 1.9614965820312498 3.85894775390625 1.9404394531249998 Q 3.839263916015625 1.9193823242187498 3.828125 1.8879492187499998 Q 3.816986083984375 1.8565161132812498 3.816986083984375 1.8147070312499998 Q 3.816986083984375 1.7808325195312498 3.826446533203125 1.7507727050781248 Q 3.835906982421875 1.7207128906249998 3.85467529296875 1.6982824707031248 Q 3.873443603515625 1.6758520507812498 3.901214599609375 1.6627294921874998 Q 3.928985595703125 1.6496069335937498 3.965911865234375 1.6496069335937498 Q 4.001617431640625 1.6496069335937498 4.02557373046875 1.6604406738281248 Q 4.049530029296875 1.6712744140624998 4.06463623046875 1.6891271972656248 Q 4.079742431640625 1.7069799804687498 4.0875244140625 1.7298681640624998 Q 4.095306396484375 1.7527563476562498 4.098358154296875 1.7765600585937498 Q 4.099884033203125 1.7881567382812498 4.100341796875 1.8000585937499998 Q 4.100799560546875 1.8119604492187498 4.100799560546875 1.8232519531249998 L 3.873138427734375 1.8232519531249998 M 3.961944580078125 1.6972143554687498 Q 3.942108154296875 1.6972143554687498 3.92730712890625 1.7028601074218748 Q 3.912506103515625 1.7085058593749998 3.902130126953125 1.7190344238281248 Q 3.891754150390625 1.7295629882812498 3.885498046875 1.7448217773437498 Q 3.879241943359375 1.7600805664062498 3.876190185546875 1.7790014648437498 L 4.040069580078125 1.7790014648437498 Q 4.038848876953125 1.7613012695312498 4.034423828125 1.7463476562499998 Q 4.029998779296875 1.7313940429687498 4.020843505859375 1.7204077148437498 Q 4.011688232421875 1.7094213867187498 3.997344970703125 1.7033178710937498 Q 3.983001708984375 1.6972143554687498 3.961944580078125 1.6972143554687498 M 4.365234375 1.4991552734374998 L 4.46502685546875 1.4991552734374998 L 4.46502685546875 1.9215185546874998 L 4.51141357421875 1.9215185546874998 L 4.51141357421875 1.9740087890624998 L 4.40826416015625 1.9740087890624998 L 4.40826416015625 1.9480688476562498 Q 4.39300537109375 1.9636328124999998 4.37286376953125 1.9723303222656248 Q 4.35272216796875 1.9810278320312498 4.32708740234375 1.9810278320312498 Q 4.2950439453125 1.9810278320312498 4.267425537109375 1.9698889160156248 Q 4.23980712890625 1.9587499999999998 4.219512939453125 1.9372351074218748 Q 4.19921875 1.9157202148437498 4.187774658203125 1.8844396972656248 Q 4.17633056640625 1.8531591796874998 4.17633056640625 1.8128759765624998 Q 4.17633056640625 1.7762548828124998 4.18731689453125 1.7461950683593748 Q 4.19830322265625 1.7161352539062498 4.21844482421875 1.6949255371093748 Q 4.23858642578125 1.6737158203124998 4.2669677734375 1.6619665527343748 Q 4.29534912109375 1.6502172851562498 4.33013916015625 1.6502172851562498 Q 4.35302734375 1.6502172851562498 4.3719482421875 1.6552526855468748 Q 4.390869140625 1.6602880859374998 4.40826416015625 1.6728002929687498 L 4.40826416015625 1.5516455078124998 L 4.365234375 1.5516455078124998 L 4.365234375 1.4991552734374998 M 4.33441162109375 1.9315893554687498 Q 4.3597412109375 1.9315893554687498 4.3768310546875 1.9241125488281248 Q 4.3939208984375 1.9166357421874998 4.40826416015625 1.9016821289062498 L 4.40826416015625 1.7246801757812498 Q 4.39300537109375 1.7118627929687498 4.3731689453125 1.7060644531249998 Q 4.35333251953125 1.7002661132812498 4.33258056640625 1.7002661132812498 Q 4.31243896484375 1.7002661132812498 4.29473876953125 1.7077429199218748 Q 4.27703857421875 1.7152197265624998 4.263763427734375 1.7295629882812498 Q 4.25048828125 1.7439062499999998 4.24285888671875 1.7646582031249998 Q 4.2352294921875 1.7854101562499998 4.2352294921875 1.8122656249999998 Q 4.2352294921875 1.8415624999999998 4.2425537109375 1.8638403320312498 Q 4.2498779296875 1.8861181640624998 4.26300048828125 1.9012243652343748 Q 4.276123046875 1.9163305664062498 4.29443359375 1.9239599609374998 Q 4.312744140625 1.9315893554687498 4.33441162109375 1.9315893554687498 M 4.71710205078125 1.9215185546874998 L 4.76104736328125 1.9215185546874998 L 4.76104736328125 1.5696508789062498 L 4.71710205078125 1.5696508789062498 L 4.71710205078125 1.5113623046874998 L 4.86358642578125 1.5113623046874998 L 5.0103759765625 1.9108374023437498 L 5.15899658203125 1.5113623046874998 L 5.2978515625 1.5113623046874998 L 5.2978515625 1.5696508789062498 L 5.25421142578125 1.5696508789062498 L 5.25421142578125 1.9215185546874998 L 5.2978515625 1.9215185546874998 L 5.2978515625 1.9740087890624998 L 5.147705078125 1.9740087890624998 L 5.147705078125 1.9215185546874998 L 5.1971435546875 1.9215185546874998 L 5.1971435546875 1.5662939453124998 L 5.035400390625 1.9740087890624998 L 4.9835205078125 1.9740087890624998 L 4.81964111328125 1.5653784179687498 L 4.81964111328125 1.9215185546874998 L 4.86724853515625 1.9215185546874998 L 4.86724853515625 1.9740087890624998 L 4.71710205078125 1.9740087890624998 L 4.71710205078125 1.9215185546874998 M 5.368499755859375 1.8159277343749998 Q 5.368804931640625 1.7783911132812498 5.38055419921875 1.7475683593749998 Q 5.392303466796875 1.7167456054687498 5.413360595703125 1.6946203613281248 Q 5.434417724609375 1.6724951171874998 5.463409423828125 1.6605932617187498 Q 5.492401123046875 1.6486914062499998 5.527191162109375 1.6486914062499998 Q 5.562286376953125 1.6486914062499998 5.5914306640625 1.6605932617187498 Q 5.620574951171875 1.6724951171874998 5.641326904296875 1.6943151855468748 Q 5.662078857421875 1.7161352539062498 5.673675537109375 1.7469580078124998 Q 5.685272216796875 1.7777807617187498 5.685272216796875 1.8153173828124998 Q 5.685272216796875 1.8522436523437498 5.673675537109375 1.8832189941406248 Q 5.662078857421875 1.9141943359374998 5.641326904296875 1.9364721679687498 Q 5.620574951171875 1.9587499999999998 5.5914306640625 1.9711096191406248 Q 5.562286376953125 1.9834692382812498 5.527191162109375 1.9834692382812498 Q 5.491485595703125 1.9834692382812498 5.462493896484375 1.9712622070312498 Q 5.433502197265625 1.9590551757812498 5.412750244140625 1.9369299316406248 Q 5.391998291015625 1.9148046874999998 5.380401611328125 1.8839819335937498 Q 5.368804931640625 1.8531591796874998 5.368499755859375 1.8159277343749998 M 5.428619384765625 1.8159277343749998 Q 5.428619384765625 1.8430883789062498 5.4364013671875 1.8650610351562498 Q 5.444183349609375 1.8870336914062498 5.457763671875 1.9024450683593748 Q 5.471343994140625 1.9178564453124998 5.48919677734375 1.9262487792968748 Q 5.507049560546875 1.9346411132812498 5.527191162109375 1.9346411132812498 Q 5.548248291015625 1.9346411132812498 5.56640625 1.9264013671874998 Q 5.584564208984375 1.9181616210937498 5.597991943359375 1.9027502441406248 Q 5.611419677734375 1.8873388671874998 5.619049072265625 1.8653662109374998 Q 5.626678466796875 1.8433935546874998 5.626678466796875 1.8159277343749998 Q 5.626678466796875 1.7872412109374998 5.619049072265625 1.7649633789062498 Q 5.611419677734375 1.7426855468749998 5.59814453125 1.7277319335937498 Q 5.584869384765625 1.7127783203124998 5.566558837890625 1.7051489257812498 Q 5.548248291015625 1.6975195312499998 5.527191162109375 1.6975195312499998 Q 5.507049560546875 1.6975195312499998 5.48919677734375 1.7051489257812498 Q 5.471343994140625 1.7127783203124998 5.457763671875 1.7277319335937498 Q 5.444183349609375 1.7426855468749998 5.4364013671875 1.7649633789062498 Q 5.428619384765625 1.7872412109374998 5.428619384765625 1.8159277343749998 M 5.97564697265625 1.7420751953124998 Q 5.96282958984375 1.7191870117187498 5.943145751953125 1.7085058593749998 Q 5.9234619140625 1.6978247070312498 5.89752197265625 1.6978247070312498 Q 5.877685546875 1.6978247070312498 5.86029052734375 1.7060644531249998 Q 5.8428955078125 1.7143041992187498 5.829925537109375 1.7295629882812498 Q 5.81695556640625 1.7448217773437498 5.809478759765625 1.7666418457031248 Q 5.802001953125 1.7884619140624998 5.802001953125 1.8153173828124998 Q 5.802001953125 1.8418676757812498 5.809478759765625 1.8632299804687498 Q 5.81695556640625 1.8845922851562498 5.830078125 1.8996984863281248 Q 5.84320068359375 1.9148046874999998 5.860443115234375 1.9228918457031248 Q 5.877685546875 1.9309790039062498 5.89752197265625 1.9309790039062498 Q 5.92681884765625 1.9309790039062498 5.948486328125 1.9167883300781248 Q 5.97015380859375 1.9025976562499998 5.98297119140625 1.8751318359374998 L 6.02996826171875 1.8983251953124998 Q 6.02081298828125 1.9178564453124998 6.00738525390625 1.9334204101562498 Q 5.99395751953125 1.9489843749999998 5.977020263671875 1.9599707031249998 Q 5.9600830078125 1.9709570312499998 5.939788818359375 1.9769079589843748 Q 5.91949462890625 1.9828588867187498 5.89691162109375 1.9828588867187498 Q 5.86395263671875 1.9828588867187498 5.836029052734375 1.9704992675781248 Q 5.80810546875 1.9581396484374998 5.787811279296875 1.9358618164062498 Q 5.76751708984375 1.9135839843749998 5.7562255859375 1.8827612304687498 Q 5.74493408203125 1.8519384765624998 5.74493408203125 1.8153173828124998 Q 5.74493408203125 1.7786962890624998 5.7568359375 1.7478735351562498 Q 5.76873779296875 1.7170507812499998 5.78948974609375 1.6949255371093748 Q 5.81024169921875 1.6728002929687498 5.8380126953125 1.6602880859374998 Q 5.86578369140625 1.6477758789062498 5.89752197265625 1.6477758789062498 Q 5.92742919921875 1.6477758789062498 5.954132080078125 1.6581518554687498 Q 5.9808349609375 1.6685278320312498 6.0009765625 1.6895849609374998 L 6.03302001953125 1.6895849609374998 L 6.03302001953125 1.7420751953124998 L 5.97564697265625 1.7420751953124998 M 6.086883544921875 1.4991552734374998 L 6.198272705078125 1.4991552734374998 L 6.198272705078125 1.5516455078124998 L 6.197662353515625 1.5516455078124998 L 6.197662353515625 1.7878515624999998 L 6.252593994140625 1.7878515624999998 L 6.327667236328125 1.7103369140624998 L 6.308746337890625 1.7103369140624998 L 6.308746337890625 1.6578466796874998 L 6.428680419921875 1.6578466796874998 L 6.428680419921875 1.7103369140624998 L 6.388702392578125 1.7103369140624998 L 6.292572021484375 1.8095190429687498 L 6.397552490234375 1.9215185546874998 L 6.435699462890625 1.9215185546874998 L 6.435699462890625 1.9740087890624998 L 6.368865966796875 1.9740087890624998 L 6.239471435546875 1.8327124023437498 L 6.197662353515625 1.8327124023437498 L 6.197662353515625 1.9215185546874998 L 6.223907470703125 1.9215185546874998 L 6.223907470703125 1.9740087890624998 L 6.088714599609375 1.9740087890624998 L 6.088714599609375 1.9215185546874998 L 6.140594482421875 1.9215185546874998 L 6.140594482421875 1.5516455078124998 L 6.086883544921875 1.5516455078124998 L 6.086883544921875 1.4991552734374998 M 6.633148193359375 1.5113623046874998 L 6.780853271484375 1.5113623046874998 L 6.780853271484375 1.5641577148437498 L 6.736907958984375 1.5641577148437498 L 6.736907958984375 1.9215185546874998 L 6.780853271484375 1.9215185546874998 L 6.780853271484375 1.9740087890624998 L 6.633148193359375 1.9740087890624998 L 6.633148193359375 1.9215185546874998 L 6.677093505859375 1.9215185546874998 L 6.677093505859375 1.5641577148437498 L 6.633148193359375 1.5641577148437498 L 6.633148193359375 1.5113623046874998 M 7.06390380859375 1.9215185546874998 L 7.10845947265625 1.9215185546874998 L 7.10845947265625 1.7771704101562498 Q 7.10845947265625 1.7408544921874998 7.089996337890625 1.7220861816406248 Q 7.071533203125 1.7033178710937498 7.03704833984375 1.7033178710937498 Q 7.0172119140625 1.7033178710937498 6.9970703125 1.7127783203124998 Q 6.9769287109375 1.7222387695312498 6.95892333984375 1.7362768554687498 L 6.95892333984375 1.9215185546874998 L 7.00347900390625 1.9215185546874998 L 7.00347900390625 1.9740087890624998 L 6.85577392578125 1.9740087890624998 L 6.85577392578125 1.9215185546874998 L 6.89971923828125 1.9215185546874998 L 6.89971923828125 1.7103369140624998 L 6.85577392578125 1.7103369140624998 L 6.85577392578125 1.6578466796874998 L 6.95648193359375 1.6578466796874998 L 6.95648193359375 1.6950781249999998 L 6.95709228515625 1.6950781249999998 Q 6.9671630859375 1.6862280273437498 6.978607177734375 1.6782934570312498 Q 6.99005126953125 1.6703588867187498 7.0025634765625 1.6645605468749998 Q 7.01507568359375 1.6587622070312498 7.028656005859375 1.6554052734374998 Q 7.042236328125 1.6520483398437498 7.05718994140625 1.6520483398437498 Q 7.08251953125 1.6520483398437498 7.10296630859375 1.6590673828124998 Q 7.1234130859375 1.6660864257812498 7.13775634765625 1.6804296874999998 Q 7.152099609375 1.6947729492187498 7.159881591796875 1.7172033691406248 Q 7.16766357421875 1.7396337890624998 7.16766357421875 1.7701513671874998 L 7.16766357421875 1.9215185546874998 L 7.21160888671875 1.9215185546874998 L 7.21160888671875 1.9740087890624998 L 7.06390380859375 1.9740087890624998 L 7.06390380859375 1.9215185546874998 M 7.364959716796875 1.6578466796874998 L 7.439117431640625 1.6578466796874998 L 7.439117431640625 1.7039282226562498 L 7.364349365234375 1.7039282226562498 L 7.363433837890625 1.8864233398437498 Q 7.363433837890625 1.9050390624999998 7.367706298828125 1.9166357421874998 Q 7.371978759765625 1.9282324218749998 7.381439208984375 1.9326574707031248 Q 7.390899658203125 1.9370825195312498 7.402801513671875 1.9370825195312498 Q 7.415618896484375 1.9370825195312498 7.425384521484375 1.9347937011718748 Q 7.435150146484375 1.9325048828124998 7.446746826171875 1.9270117187499998 L 7.459869384765625 1.9651586914062498 Q 7.445220947265625 1.9727880859374998 7.429046630859375 1.9772131347656248 Q 7.412872314453125 1.9816381835937498 7.390899658203125 1.9816381835937498 Q 7.370147705078125 1.9816381835937498 7.354736328125 1.9766027832031248 Q 7.339324951171875 1.9715673828124998 7.32879638671875 1.9596655273437498 Q 7.318267822265625 1.9477636718749998 7.313079833984375 1.9277746582031248 Q 7.307891845703125 1.9077856445312498 7.307891845703125 1.8778784179687498 L 7.308807373046875 1.7039282226562498 L 7.258453369140625 1.7039282226562498 L 7.258453369140625 1.6578466796874998 L 7.309417724609375 1.6578466796874998 L 7.309417724609375 1.5821630859374998 L 7.364959716796875 1.5559179687499998 L 7.364959716796875 1.6578466796874998 M 7.5604248046875 1.8232519531249998 Q 7.5604248046875 1.8366796874999998 7.562408447265625 1.8478186035156248 Q 7.56439208984375 1.8589575195312498 7.56805419921875 1.8690283203124998 Q 7.579345703125 1.8995458984374998 7.604217529296875 1.9149572753906248 Q 7.62908935546875 1.9303686523437498 7.6605224609375 1.9303686523437498 Q 7.68524169921875 1.9303686523437498 7.708587646484375 1.9235021972656248 Q 7.73193359375 1.9166357421874998 7.757568359375 1.9019873046874998 L 7.78045654296875 1.9407446289062498 Q 7.74932861328125 1.9621069335937498 7.7178955078125 1.9724829101562498 Q 7.68646240234375 1.9828588867187498 7.652587890625 1.9828588867187498 Q 7.62054443359375 1.9828588867187498 7.593231201171875 1.9721777343749998 Q 7.56591796875 1.9614965820312498 7.546234130859375 1.9404394531249998 Q 7.52655029296875 1.9193823242187498 7.515411376953125 1.8879492187499998 Q 7.5042724609375 1.8565161132812498 7.5042724609375 1.8147070312499998 Q 7.5042724609375 1.7808325195312498 7.51373291015625 1.7507727050781248 Q 7.523193359375 1.7207128906249998 7.541961669921875 1.6982824707031248 Q 7.56072998046875 1.6758520507812498 7.5885009765625 1.6627294921874998 Q 7.61627197265625 1.6496069335937498 7.6531982421875 1.6496069335937498 Q 7.68890380859375 1.6496069335937498 7.712860107421875 1.6604406738281248 Q 7.73681640625 1.6712744140624998 7.751922607421875 1.6891271972656248 Q 7.76702880859375 1.7069799804687498 7.774810791015625 1.7298681640624998 Q 7.7825927734375 1.7527563476562498 7.78564453125 1.7765600585937498 Q 7.78717041015625 1.7881567382812498 7.787628173828125 1.8000585937499998 Q 7.7880859375 1.8119604492187498 7.7880859375 1.8232519531249998 L 7.5604248046875 1.8232519531249998 M 7.64923095703125 1.6972143554687498 Q 7.62939453125 1.6972143554687498 7.614593505859375 1.7028601074218748 Q 7.59979248046875 1.7085058593749998 7.58941650390625 1.7190344238281248 Q 7.57904052734375 1.7295629882812498 7.572784423828125 1.7448217773437498 Q 7.5665283203125 1.7600805664062498 7.5634765625 1.7790014648437498 L 7.72735595703125 1.7790014648437498 Q 7.72613525390625 1.7613012695312498 7.721710205078125 1.7463476562499998 Q 7.71728515625 1.7313940429687498 7.7081298828125 1.7204077148437498 Q 7.698974609375 1.7094213867187498 7.68463134765625 1.7033178710937498 Q 7.6702880859375 1.6972143554687498 7.64923095703125 1.6972143554687498 M 8.093414306640625 1.7246801757812498 L 8.035430908203125 1.7246801757812498 L 8.035430908203125 1.7051489257812498 Q 8.025360107421875 1.7051489257812498 8.01483154296875 1.7089636230468748 Q 8.004302978515625 1.7127783203124998 7.995147705078125 1.7205603027343748 Q 7.985992431640625 1.7283422851562498 7.9791259765625 1.7403967285156248 Q 7.972259521484375 1.7524511718749998 7.969207763671875 1.7689306640624998 L 7.969207763671875 1.9215185546874998 L 8.022918701171875 1.9215185546874998 L 8.022918701171875 1.9740087890624998 L 7.866058349609375 1.9740087890624998 L 7.866058349609375 1.9215185546874998 L 7.909698486328125 1.9215185546874998 L 7.910003662109375 1.7103369140624998 L 7.866058349609375 1.7103369140624998 L 7.866058349609375 1.6578466796874998 L 7.967071533203125 1.6578466796874998 L 7.967071533203125 1.7014868164062498 Q 7.972564697265625 1.6917211914062498 7.97943115234375 1.6833288574218748 Q 7.986297607421875 1.6749365234374998 7.99468994140625 1.6686804199218748 Q 8.003082275390625 1.6624243164062498 8.0133056640625 1.6589147949218748 Q 8.023529052734375 1.6554052734374998 8.035430908203125 1.6554052734374998 Q 8.051300048828125 1.6554052734374998 8.065338134765625 1.6554052734374998 Q 8.079376220703125 1.6554052734374998 8.093414306640625 1.6560156249999998 L 8.093414306640625 1.7246801757812498 M 8.1353759765625 1.6578466796874998 L 8.24462890625 1.6578466796874998 L 8.24462890625 1.7103369140624998 L 8.21502685546875 1.7103369140624998 L 8.29315185546875 1.9282324218749998 L 8.36944580078125 1.7103369140624998 L 8.3502197265625 1.7103369140624998 L 8.3502197265625 1.6578466796874998 L 8.4503173828125 1.6578466796874998 L 8.4503173828125 1.7103369140624998 L 8.42315673828125 1.7103369140624998 L 8.3197021484375 1.9788916015624998 L 8.2635498046875 1.9788916015624998 L 8.160400390625 1.7103369140624998 L 8.1353759765625 1.7103369140624998 L 8.1353759765625 1.6578466796874998 M 8.493804931640625 1.6578466796874998 L 8.596954345703125 1.6578466796874998 L 8.596954345703125 1.9215185546874998 L 8.644561767578125 1.9215185546874998 L 8.644561767578125 1.9740087890624998 L 8.494415283203125 1.9740087890624998 L 8.494415283203125 1.9215185546874998 L 8.539581298828125 1.9215185546874998 L 8.539581298828125 1.7103369140624998 L 8.493804931640625 1.7103369140624998 L 8.493804931640625 1.6578466796874998 M 8.528900146484375 1.5458471679687498 Q 8.528900146484375 1.5379125976562498 8.5321044921875 1.5307409667968748 Q 8.535308837890625 1.5235693359374998 8.5406494140625 1.5182287597656248 Q 8.545989990234375 1.5128881835937498 8.553314208984375 1.5096838378906248 Q 8.560638427734375 1.5064794921874998 8.568878173828125 1.5064794921874998 Q 8.576812744140625 1.5064794921874998 8.583984375 1.5096838378906248 Q 8.591156005859375 1.5128881835937498 8.59649658203125 1.5182287597656248 Q 8.601837158203125 1.5235693359374998 8.60504150390625 1.5307409667968748 Q 8.608245849609375 1.5379125976562498 8.608245849609375 1.5458471679687498 Q 8.608245849609375 1.5540869140624998 8.60504150390625 1.5614111328124998 Q 8.601837158203125 1.5687353515624998 8.59649658203125 1.5743811035156248 Q 8.591156005859375 1.5800268554687498 8.583984375 1.5832312011718748 Q 8.576812744140625 1.5864355468749998 8.568878173828125 1.5864355468749998 Q 8.560638427734375 1.5864355468749998 8.553314208984375 1.5832312011718748 Q 8.545989990234375 1.5800268554687498 8.5406494140625 1.5743811035156248 Q 8.535308837890625 1.5687353515624998 8.5321044921875 1.5614111328124998 Q 8.528900146484375 1.5540869140624998 8.528900146484375 1.5458471679687498 M 8.751220703125 1.8232519531249998 Q 8.751220703125 1.8366796874999998 8.753204345703125 1.8478186035156248 Q 8.75518798828125 1.8589575195312498 8.75885009765625 1.8690283203124998 Q 8.7701416015625 1.8995458984374998 8.795013427734375 1.9149572753906248 Q 8.81988525390625 1.9303686523437498 8.851318359375 1.9303686523437498 Q 8.87603759765625 1.9303686523437498 8.899383544921875 1.9235021972656248 Q 8.9227294921875 1.9166357421874998 8.9483642578125 1.9019873046874998 L 8.97125244140625 1.9407446289062498 Q 8.94012451171875 1.9621069335937498 8.90869140625 1.9724829101562498 Q 8.87725830078125 1.9828588867187498 8.8433837890625 1.9828588867187498 Q 8.81134033203125 1.9828588867187498 8.784027099609375 1.9721777343749998 Q 8.7567138671875 1.9614965820312498 8.737030029296875 1.9404394531249998 Q 8.71734619140625 1.9193823242187498 8.706207275390625 1.8879492187499998 Q 8.695068359375 1.8565161132812498 8.695068359375 1.8147070312499998 Q 8.695068359375 1.7808325195312498 8.70452880859375 1.7507727050781248 Q 8.7139892578125 1.7207128906249998 8.732757568359375 1.6982824707031248 Q 8.75152587890625 1.6758520507812498 8.779296875 1.6627294921874998 Q 8.80706787109375 1.6496069335937498 8.843994140625 1.6496069335937498 Q 8.87969970703125 1.6496069335937498 8.903656005859375 1.6604406738281248 Q 8.9276123046875 1.6712744140624998 8.942718505859375 1.6891271972656248 Q 8.95782470703125 1.7069799804687498 8.965606689453125 1.7298681640624998 Q 8.973388671875 1.7527563476562498 8.9764404296875 1.7765600585937498 Q 8.97796630859375 1.7881567382812498 8.978424072265625 1.8000585937499998 Q 8.9788818359375 1.8119604492187498 8.9788818359375 1.8232519531249998 L 8.751220703125 1.8232519531249998 M 8.84002685546875 1.6972143554687498 Q 8.8201904296875 1.6972143554687498 8.805389404296875 1.7028601074218748 Q 8.79058837890625 1.7085058593749998 8.78021240234375 1.7190344238281248 Q 8.76983642578125 1.7295629882812498 8.763580322265625 1.7448217773437498 Q 8.75732421875 1.7600805664062498 8.7542724609375 1.7790014648437498 L 8.91815185546875 1.7790014648437498 Q 8.91693115234375 1.7613012695312498 8.912506103515625 1.7463476562499998 Q 8.9080810546875 1.7313940429687498 8.89892578125 1.7204077148437498 Q 8.8897705078125 1.7094213867187498 8.87542724609375 1.7033178710937498 Q 8.861083984375 1.6972143554687498 8.84002685546875 1.6972143554687498 M 9.032440185546875 1.6578466796874998 L 9.132537841796875 1.6578466796874998 L 9.132537841796875 1.7103369140624998 L 9.117889404296875 1.7103369140624998 L 9.173126220703125 1.9120581054687498 L 9.248809814453125 1.6578466796874998 L 9.296417236328125 1.6578466796874998 L 9.368743896484375 1.9114477539062498 L 9.426422119140625 1.7103369140624998 L 9.408111572265625 1.7103369140624998 L 9.408111572265625 1.6578466796874998 L 9.508209228515625 1.6578466796874998 L 9.508209228515625 1.7103369140624998 L 9.481048583984375 1.7103369140624998 L 9.394378662109375 1.9788916015624998 L 9.341888427734375 1.9788916015624998 L 9.270172119140625 1.7265112304687498 L 9.198760986328125 1.9788916015624998 L 9.145660400390625 1.9788916015624998 L 9.059600830078125 1.7103369140624998 L 9.032440185546875 1.7103369140624998 L 9.032440185546875 1.6578466796874998 M 9.982452392578125 1.9215185546874998 L 10.020904541015625 1.9215185546874998 L 9.984283447265625 1.8165380859374998 L 9.806365966796875 1.8165380859374998 L 9.770660400390625 1.9215185546874998 L 9.818267822265625 1.9215185546874998 L 9.818267822265625 1.9740087890624998 L 9.668121337890625 1.9740087890624998 L 9.668121337890625 1.9215185546874998 L 9.708404541015625 1.9215185546874998 L 9.852447509765625 1.5113623046874998 L 9.942474365234375 1.5113623046874998 L 10.086212158203125 1.9215185546874998 L 10.132598876953125 1.9215185546874998 L 10.132598876953125 1.9740087890624998 L 9.982452392578125 1.9740087890624998 L 9.982452392578125 1.9215185546874998 M 9.823760986328125 1.7658789062499998 L 9.966583251953125 1.7658789062499998 L 9.894561767578125 1.5589697265624998 L 9.823760986328125 1.7658789062499998 M 10.1544189453125 1.6578466796874998 L 10.255126953125 1.6578466796874998 L 10.255126953125 1.6840917968749998 Q 10.2752685546875 1.6685278320312498 10.299072265625 1.6593725585937498 Q 10.3228759765625 1.6502172851562498 10.34820556640625 1.6502172851562498 Q 10.37933349609375 1.6502172851562498 10.4052734375 1.6618139648437498 Q 10.43121337890625 1.6734106445312498 10.449981689453125 1.6944677734374998 Q 10.46875 1.7155249023437498 10.4791259765625 1.7449743652343748 Q 10.489501953125 1.7744238281249998 10.489501953125 1.8101293945312498 Q 10.489501953125 1.8482763671874998 10.4779052734375 1.8797094726562498 Q 10.46630859375 1.9111425781249998 10.445709228515625 1.9335729980468748 Q 10.42510986328125 1.9560034179687498 10.396728515625 1.9685156249999998 Q 10.36834716796875 1.9810278320312498 10.33447265625 1.9810278320312498 Q 10.31036376953125 1.9810278320312498 10.291595458984375 1.9759924316406248 Q 10.2728271484375 1.9709570312499998 10.2557373046875 1.9630224609374998 L 10.2557373046875 2.0652563476562498 L 10.30517578125 2.0652563476562498 L 10.30517578125 2.1177465820312498 L 10.155029296875 2.1177465820312498 L 10.155029296875 2.0652563476562498 L 10.1983642578125 2.0652563476562498 L 10.1983642578125 1.7103369140624998 L 10.1544189453125 1.7103369140624998 L 10.1544189453125 1.6578466796874998 M 10.333251953125 1.7002661132812498 Q 10.311279296875 1.7002661132812498 10.290985107421875 1.7091162109374998 Q 10.27069091796875 1.7179663085937498 10.2557373046875 1.7335302734374998 L 10.2557373046875 1.9047338867187498 Q 10.26580810546875 1.9151098632812498 10.284576416015625 1.9233496093749998 Q 10.3033447265625 1.9315893554687498 10.3314208984375 1.9315893554687498 Q 10.3509521484375 1.9315893554687498 10.36895751953125 1.9239599609374998 Q 10.386962890625 1.9163305664062498 10.40069580078125 1.9012243652343748 Q 10.4144287109375 1.8861181640624998 10.42266845703125 1.8638403320312498 Q 10.430908203125 1.8415624999999998 10.430908203125 1.8122656249999998 Q 10.430908203125 1.7854101562499998 10.423126220703125 1.7646582031249998 Q 10.41534423828125 1.7439062499999998 10.402069091796875 1.7295629882812498 Q 10.3887939453125 1.7152197265624998 10.37109375 1.7077429199218748 Q 10.3533935546875 1.7002661132812498 10.333251953125 1.7002661132812498 M 10.536346435546875 1.6578466796874998 L 10.637054443359375 1.6578466796874998 L 10.637054443359375 1.6840917968749998 Q 10.657196044921875 1.6685278320312498 10.680999755859375 1.6593725585937498 Q 10.704803466796875 1.6502172851562498 10.730133056640625 1.6502172851562498 Q 10.761260986328125 1.6502172851562498 10.787200927734375 1.6618139648437498 Q 10.813140869140625 1.6734106445312498 10.8319091796875 1.6944677734374998 Q 10.850677490234375 1.7155249023437498 10.861053466796875 1.7449743652343748 Q 10.871429443359375 1.7744238281249998 10.871429443359375 1.8101293945312498 Q 10.871429443359375 1.8482763671874998 10.859832763671875 1.8797094726562498 Q 10.848236083984375 1.9111425781249998 10.82763671875 1.9335729980468748 Q 10.807037353515625 1.9560034179687498 10.778656005859375 1.9685156249999998 Q 10.750274658203125 1.9810278320312498 10.716400146484375 1.9810278320312498 Q 10.692291259765625 1.9810278320312498 10.67352294921875 1.9759924316406248 Q 10.654754638671875 1.9709570312499998 10.637664794921875 1.9630224609374998 L 10.637664794921875 2.0652563476562498 L 10.687103271484375 2.0652563476562498 L 10.687103271484375 2.1177465820312498 L 10.536956787109375 2.1177465820312498 L 10.536956787109375 2.0652563476562498 L 10.580291748046875 2.0652563476562498 L 10.580291748046875 1.7103369140624998 L 10.536346435546875 1.7103369140624998 L 10.536346435546875 1.6578466796874998 M 10.715179443359375 1.7002661132812498 Q 10.693206787109375 1.7002661132812498 10.67291259765625 1.7091162109374998 Q 10.652618408203125 1.7179663085937498 10.637664794921875 1.7335302734374998 L 10.637664794921875 1.9047338867187498 Q 10.647735595703125 1.9151098632812498 10.66650390625 1.9233496093749998 Q 10.685272216796875 1.9315893554687498 10.713348388671875 1.9315893554687498 Q 10.732879638671875 1.9315893554687498 10.750885009765625 1.9239599609374998 Q 10.768890380859375 1.9163305664062498 10.782623291015625 1.9012243652343748 Q 10.796356201171875 1.8861181640624998 10.804595947265625 1.8638403320312498 Q 10.812835693359375 1.8415624999999998 10.812835693359375 1.8122656249999998 Q 10.812835693359375 1.7854101562499998 10.8050537109375 1.7646582031249998 Q 10.797271728515625 1.7439062499999998 10.78399658203125 1.7295629882812498 Q 10.770721435546875 1.7152197265624998 10.753021240234375 1.7077429199218748 Q 10.735321044921875 1.7002661132812498 10.715179443359375 1.7002661132812498" fill="#fbe5c1" fill-rule="nonzero"></path></g></g><defs><clipPath id="SvgjsClipPath115221"><path d=" M 1.4616170217568425 -8.462461399146925 h 7.97627157172069 v 7.912461399146925 h -7.97627157172069 Z"></path></clipPath><clipPath id="SvgjsClipPath115215cc97f73b-6f8e-4a32-bf50-74565ce6aa5f"><path d=" M 1.4616170217568425 -8.462461399146925 L 9.437888593477533 -8.462461399146925 L 9.437888593477533 -0.5499999999999998 L 1.4616170217568425 -0.5499999999999998 Z"></path></clipPath><clipPath id="SvgjsClipPath115216cc97f73b-6f8e-4a32-bf50-74565ce6aa5f"><path d=" M 3.4556849146870148 -6.412772343373874 L 7.443820700547359 -6.412772343373874 L 7.443820700547359 -2.5996890557730508 L 3.4556849146870148 -2.5996890557730508 Z"></path></clipPath></defs></svg>